<svg xmlns="http://www.w3.org/2000/svg" viewBox="0 0 51.71 101.8"><defs><style>.cls-1{fill:#fff;}</style></defs><title>Ресурс 3</title><g id="Слой_2" data-name="Слой 2"><g id="Слой_1-2" data-name="Слой 1"><path class="cls-1" d="M12,59.4A59.85,59.85,0,0,0,26.35,43.77a33.41,33.41,0,0,0,5.39-17.86q0-8.68-6.57-8.68A6.16,6.16,0,0,0,20.52,19a6.68,6.68,0,0,0-1.67,4.84,19.22,19.22,0,0,0,1.49,6.82L2.11,34.84A35.48,35.48,0,0,1,0,23.19q0-10.91,6.7-17T25.67,0q12.4,0,19.22,6.57T51.71,25.3a40.81,40.81,0,0,1-5.46,20.58A57.76,57.76,0,0,1,30.38,63.24V75.39H12Zm-.62,23.19H31.12V101.8H11.41Z"/></g></g></svg>